# xmcd CD database file
#
# Track frame offsets:
#	150
#	19600
#	34550
#	49085
#	61332
#	74167
#	93570
#	104317
#	120952
#	139200
#	151340
#	168060
#	180400
#	195475
#	210745
#	225432
#	240965
#	255422
#	269542
#	284997
#	299487
#
# Disc length: 4234 seconds
#
# Revision: 1
# Processed by: cddbd v1.5.1PL2 Copyright (c) Steve Scherf et al.
# Submitted via: CDex 1.51
#
DISCID=29108815
DTITLE=Amado Batista - Maxximum
DYEAR=2005
DGENRE=Country
TTITLE0=Seresteiro das noites
TTITLE1=Menininha, meu amor
TTITLE2=Chance
TTITLE3=Anjo bom
TTITLE4=Você mudou demais
TTITLE5=Seguindo a multidão
TTITLE6=Meu Ex-Amor
TTITLE7=Escuta
TTITLE8=Reclamando sua ausência
TTITLE9=Eu sou seu fã
TTITLE10=Princesa
TTITLE11=Morro de ciúmes dela
TTITLE12=Vida cor de rosa
TTITLE13=Não quero falar com ela
TTITLE14=Estou apaixonado
TTITLE15=Pra que fugir de mim
TTITLE16=Amar, Amar
TTITLE17=Quem é você
TTITLE18=Tum Tum de saudade (Ao Vivo)
TTITLE19=Tem pena de mim
TTITLE20=Como na primeira vez
EXTD=YEAR: 2005
EXTT0=
EXTT1=
EXTT2=
EXTT3=
EXTT4=
EXTT5=
EXTT6=
EXTT7=
EXTT8=
EXTT9=
EXTT10=
EXTT11=
EXTT12=
EXTT13=
EXTT14=
EXTT15=
EXTT16=
EXTT17=
EXTT18=
EXTT19=
EXTT20=
PLAYORDER=
